HIERARCHY
ROOT Hips
{
	OFFSET 0.000000 83.214638 0.000000
	CHANNELS 6 Xposition Yposition Zposition Xrotation Yrotation Zrotation
	JOINT Pelvis
	{
		OFFSET 0.000000 0.000000 0.000000
		CHANNELS 3 Xrotation Yrotation Zrotation
		JOINT LeftUpLeg
		{
			OFFSET 8.479700 -4.795502 -0.379100
			CHANNELS 3 Xrotation Yrotation Zrotation
			JOINT LeftLeg
			{
				OFFSET 0.024144 -32.555107 0.112900
				CHANNELS 3 Xrotation Yrotation Zrotation
				JOINT LeftFoot
				{
					OFFSET -0.024144 -32.638630 -3.012600
					CHANNELS 3 Xrotation Yrotation Zrotation
					JOINT LeftToeBase
					{
						OFFSET 0.970200 -13.225400 11.864200
						CHANNELS 3 Xrotation Yrotation Zrotation
						End Site
						{
							OFFSET 0.000000 12.319262 0.000000
						}
					}
					JOINT LFootTongue
					{
						OFFSET 1.142400 -1.059800 6.665200
						CHANNELS 3 Xrotation Yrotation Zrotation
						End Site
						{
							OFFSET 0.000000 12.319262 0.000000
						}
					}
				}
				JOINT LeftPantLeg
				{
					OFFSET 0.918482 -16.533964 -2.284700
					CHANNELS 3 Xrotation Yrotation Zrotation
					End Site
					{
						OFFSET 0.350399 24.744368 0.000000
					}
				}
			}
		}
		JOINT RightUpLeg
		{
			OFFSET -8.479700 -4.795502 -0.379100
			CHANNELS 3 Xrotation Yrotation Zrotation
			JOINT RightLeg
			{
				OFFSET -0.023144 -32.555092 0.112900
				CHANNELS 3 Xrotation Yrotation Zrotation
				JOINT RightFoot
				{
					OFFSET 0.023144 -32.638641 -3.012700
					CHANNELS 3 Xrotation Yrotation Zrotation
					JOINT RightToeBase
					{
						OFFSET -0.970200 -13.225400 11.864200
						CHANNELS 3 Xrotation Yrotation Zrotation
						End Site
						{
							OFFSET 0.000000 12.319244 0.000000
						}
					}
					JOINT RFootTongue
					{
						OFFSET -1.142200 -1.059800 6.665200
						CHANNELS 3 Xrotation Yrotation Zrotation
						End Site
						{
							OFFSET 0.000000 12.319243 0.000000
						}
					}
				}
				JOINT RightPantLeg
				{
					OFFSET -0.919482 -16.533978 -2.284800
					CHANNELS 3 Xrotation Yrotation Zrotation
					End Site
					{
						OFFSET -0.350400 24.744419 0.000000
					}
				}
			}
		}
	}
	JOINT Spine
	{
		OFFSET 0.000000 7.722000 1.166200
		CHANNELS 3 Xrotation Yrotation Zrotation
		JOINT Spine1
		{
			OFFSET 0.000000 12.024101 0.248800
			CHANNELS 3 Xrotation Yrotation Zrotation
			JOINT Spine2
			{
				OFFSET 0.000000 11.502998 -0.491200
				CHANNELS 3 Xrotation Yrotation Zrotation
				JOINT Neck
				{
					OFFSET 0.000000 18.430702 -3.123100
					CHANNELS 3 Xrotation Yrotation Zrotation
					JOINT Head
					{
						OFFSET 0.000000 9.051102 1.034000
						CHANNELS 3 Xrotation Yrotation Zrotation
						JOINT HairB
						{
							OFFSET 0.208400 24.786102 24.822300
							CHANNELS 3 Xrotation Yrotation Zrotation
							End Site
							{
								OFFSET 0.000000 32.263779 0.000000
							}
						}
						JOINT HairA
						{
							OFFSET -7.081100 24.428299 23.196600
							CHANNELS 3 Xrotation Yrotation Zrotation
							End Site
							{
								OFFSET 0.000000 32.263779 0.000000
							}
						}
						JOINT Hat
						{
							OFFSET 16.728800 15.048294 -15.439601
							CHANNELS 3 Xrotation Yrotation Zrotation
							End Site
							{
								OFFSET 0.000000 32.263779 0.000000
							}
						}
					}
				}
				JOINT LeftShoulder
				{
					OFFSET 6.197800 13.665199 -4.064700
					CHANNELS 3 Xrotation Yrotation Zrotation
					JOINT LeftArm
					{
						OFFSET 7.778100 -0.187103 -1.709300
						CHANNELS 3 Xrotation Yrotation Zrotation
						JOINT LeftForeArm
						{
							OFFSET 22.049376 0.000000 0.000000
							CHANNELS 3 Xrotation Yrotation Zrotation
							JOINT LeftHand
							{
								OFFSET 23.009392 0.000000 0.000000
								CHANNELS 3 Xrotation Yrotation Zrotation
								JOINT LeftHandThumb1
								{
									OFFSET 3.507191 -2.063065 3.133727
									CHANNELS 3 Xrotation Yrotation Zrotation
									JOINT LeftHandThumb2
									{
										OFFSET 3.101337 -1.790558 1.790558
										CHANNELS 3 Xrotation Yrotation Zrotation
										JOINT LeftHandThumb3
										{
											OFFSET 3.058640 -1.765907 1.765906
											CHANNELS 3 Xrotation Yrotation Zrotation
											End Site
											{
												OFFSET -0.415260 3.926476 -0.049563
											}
										}
									}
								}
								JOINT LeftHandIndex1
								{
									OFFSET 11.334419 -0.901459 3.706815
									CHANNELS 3 Xrotation Yrotation Zrotation
									JOINT LeftHandIndex2
									{
										OFFSET 3.283112 0.000000 0.000000
										CHANNELS 3 Xrotation Yrotation Zrotation
										JOINT LeftHandIndex3
										{
											OFFSET 3.323853 0.000000 0.000000
											CHANNELS 3 Xrotation Yrotation Zrotation
											End Site
											{
												OFFSET -1.135597 3.097809 0.402452
											}
										}
									}
								}
								JOINT LeftHandMiddle1
								{
									OFFSET 11.335861 0.000000 0.000000
									CHANNELS 3 Xrotation Yrotation Zrotation
									JOINT LeftHandMiddle2
									{
										OFFSET 3.410492 0.000000 0.000000
										CHANNELS 3 Xrotation Yrotation Zrotation
										JOINT LeftHandMiddle3
										{
											OFFSET 3.312172 0.000000 0.000000
											CHANNELS 3 Xrotation Yrotation Zrotation
											End Site
											{
												OFFSET -1.150200 3.080154 0.400270
											}
										}
									}
								}
								JOINT LeftHandRing1
								{
									OFFSET 11.514786 -0.013176 -3.003090
									CHANNELS 3 Xrotation Yrotation Zrotation
									JOINT LeftHandRing2
									{
										OFFSET 3.053307 0.000000 0.000000
										CHANNELS 3 Xrotation Yrotation Zrotation
										JOINT LeftHandRing3
										{
											OFFSET 3.295807 0.000000 0.000000
											CHANNELS 3 Xrotation Yrotation Zrotation
											End Site
											{
												OFFSET -1.281006 3.013344 0.375733
											}
										}
									}
								}
								JOINT LeftHandPinky1
								{
									OFFSET 10.518692 -0.960396 -5.730441
									CHANNELS 3 Xrotation Yrotation Zrotation
									JOINT LeftHandPinky2
									{
										OFFSET 2.861649 0.000000 0.000000
										CHANNELS 3 Xrotation Yrotation Zrotation
										JOINT LeftHandPinky3
										{
											OFFSET 2.863380 0.000000 0.000000
											CHANNELS 3 Xrotation Yrotation Zrotation
											End Site
											{
												OFFSET -0.843597 2.711159 0.369971
											}
										}
									}
								}
							}
							JOINT LSleeve
							{
								OFFSET 6.676277 -0.344902 -1.011730
								CHANNELS 3 Xrotation Yrotation Zrotation
								End Site
								{
									OFFSET 0.000000 14.885353 0.000000
								}
							}
						}
					}
				}
				JOINT RightShoulder
				{
					OFFSET -6.197800 13.665199 -4.064700
					CHANNELS 3 Xrotation Yrotation Zrotation
					JOINT RightArm
					{
						OFFSET -7.778100 -0.187103 -1.709300
						CHANNELS 3 Xrotation Yrotation Zrotation
						JOINT RightForeArm
						{
							OFFSET -22.049376 0.000000 0.000000
							CHANNELS 3 Xrotation Yrotation Zrotation
							JOINT RightHand
							{
								OFFSET -23.009392 0.000000 0.000000
								CHANNELS 3 Xrotation Yrotation Zrotation
								JOINT RightHandThumb1
								{
									OFFSET -3.507191 -2.063065 3.133727
									CHANNELS 3 Xrotation Yrotation Zrotation
									JOINT RightHandThumb2
									{
										OFFSET -3.101337 -1.790558 1.790558
										CHANNELS 3 Xrotation Yrotation Zrotation
										JOINT RightHandThumb3
										{
											OFFSET -3.058640 -1.765907 1.765906
											CHANNELS 3 Xrotation Yrotation Zrotation
											End Site
											{
												OFFSET 0.415260 3.926476 -0.049563
											}
										}
									}
								}
								JOINT RightHandIndex1
								{
									OFFSET -11.334419 -0.901459 3.706815
									CHANNELS 3 Xrotation Yrotation Zrotation
									JOINT RightHandIndex2
									{
										OFFSET -3.283112 0.000000 0.000000
										CHANNELS 3 Xrotation Yrotation Zrotation
										JOINT RightHandIndex3
										{
											OFFSET -3.323853 0.000000 0.000000
											CHANNELS 3 Xrotation Yrotation Zrotation
											End Site
											{
												OFFSET 1.135597 3.097809 0.402452
											}
										}
									}
								}
								JOINT RightHandMiddle1
								{
									OFFSET -11.335861 0.000000 0.000000
									CHANNELS 3 Xrotation Yrotation Zrotation
									JOINT RightHandMiddle2
									{
										OFFSET -3.410492 0.000000 0.000000
										CHANNELS 3 Xrotation Yrotation Zrotation
										JOINT RightHandMiddle3
										{
											OFFSET -3.312172 0.000000 0.000000
											CHANNELS 3 Xrotation Yrotation Zrotation
											End Site
											{
												OFFSET 1.150200 3.080154 0.400270
											}
										}
									}
								}
								JOINT RightHandRing1
								{
									OFFSET -11.514786 -0.013176 -3.003090
									CHANNELS 3 Xrotation Yrotation Zrotation
									JOINT RightHandRing2
									{
										OFFSET -3.053307 0.000000 0.000000
										CHANNELS 3 Xrotation Yrotation Zrotation
										JOINT RightHandRing3
										{
											OFFSET -3.295807 0.000000 0.000000
											CHANNELS 3 Xrotation Yrotation Zrotation
											End Site
											{
												OFFSET 1.281006 3.013344 0.375733
											}
										}
									}
								}
								JOINT RightHandPinky1
								{
									OFFSET -10.518692 -0.960396 -5.730441
									CHANNELS 3 Xrotation Yrotation Zrotation
									JOINT RightHandPinky2
									{
										OFFSET -2.861649 0.000000 0.000000
										CHANNELS 3 Xrotation Yrotation Zrotation
										JOINT RightHandPinky3
										{
											OFFSET -2.863380 0.000000 0.000000
											CHANNELS 3 Xrotation Yrotation Zrotation
											End Site
											{
												OFFSET 0.843597 2.711159 0.369971
											}
										}
									}
								}
							}
							JOINT RSleeve
							{
								OFFSET -6.676277 -0.344902 -1.011730
								CHANNELS 3 Xrotation Yrotation Zrotation
								End Site
								{
									OFFSET 0.000000 14.885353 0.000000
								}
							}
						}
					}
				}
				JOINT Backpack
				{
					OFFSET 0.000000 -2.471497 36.677502
					CHANNELS 3 Xrotation Yrotation Zrotation
					End Site
					{
						OFFSET 0.000000 20.427315 0.000000
					}
				}
				JOINT Hood
				{
					OFFSET 0.000000 18.754097 -10.431000
					CHANNELS 3 Xrotation Yrotation Zrotation
					JOINT Hood1
					{
						OFFSET 0.000000 -5.011002 -7.685901
						CHANNELS 3 Xrotation Yrotation Zrotation
						End Site
						{
							OFFSET 0.000000 9.175140 0.000000
						}
					}
				}
				JOINT LHoodieString
				{
					OFFSET 5.250500 16.397697 3.089900
					CHANNELS 3 Xrotation Yrotation Zrotation
					JOINT LHoodieString1
					{
						OFFSET 0.257700 -6.364304 3.694600
						CHANNELS 3 Xrotation Yrotation Zrotation
						JOINT LHoodieString2
						{
							OFFSET 0.000000 -9.643799 2.679100
							CHANNELS 3 Xrotation Yrotation Zrotation
							End Site
							{
								OFFSET 0.000000 10.009018 0.000000
							}
						}
					}
				}
				JOINT RHoodieString
				{
					OFFSET -5.250500 16.397697 3.089900
					CHANNELS 3 Xrotation Yrotation Zrotation
					JOINT RHoodieString1
					{
						OFFSET -0.257700 -6.364304 3.694600
						CHANNELS 3 Xrotation Yrotation Zrotation
						JOINT RHoodieString2
						{
							OFFSET 0.000000 -9.643799 2.679100
							CHANNELS 3 Xrotation Yrotation Zrotation
							End Site
							{
								OFFSET 0.000000 10.009018 0.000000
							}
						}
					}
				}
			}
			JOINT LBackpack_Strap
			{
				OFFSET 15.223200 -7.719803 -6.610900
				CHANNELS 3 Xrotation Yrotation Zrotation
				End Site
				{
					OFFSET 0.000000 16.040596 0.000000
				}
			}
			JOINT RBackpack_Strap
			{
				OFFSET -15.223000 -7.719803 -6.610900
				CHANNELS 3 Xrotation Yrotation Zrotation
				End Site
				{
					OFFSET 0.000000 16.040596 0.000000
				}
			}
		}
	}
	JOINT BoyFacialAnim_Joint
	{
		OFFSET 1.000000 -82.208099 -1.550900
		CHANNELS 3 Xrotation Yrotation Zrotation
		End Site
		{
			OFFSET 0.000000 30.012791 0.000000
		}
	}
}
MOTION
Frames: 4
Frame Time: 0.016667
0.039645 66.232292 1.302347 7.472113 2.017516 -2.410115 -0.000001 -0.000000 0.000000 21.472851 17.555581 5.414106 22.170628 -5.235048 7.478007 -41.954201 -1.789103 -1.385779 -0.000000 -0.000000 -0.000001 -0.000000 -0.000000 -0.000001 -0.000001 -0.000001 -0.000000 -62.323004 -2.508276 -0.733850 75.753662 -2.707587 -0.213818 -21.093593 3.201796 -4.293338 0.000000 -0.000000 0.000000 0.000000 -0.000000 0.000000 0.000001 0.000000 -0.000000 1.519649 -1.727829 0.857179 4.463941 -2.897044 3.069452 4.470553 -2.960903 2.997961 -6.646405 2.329847 -0.789045 -22.799696 6.183980 9.466396 -0.000001 0.000000 -0.000000 -0.000001 0.000000 -0.000000 -0.000001 0.000000 -0.000000 -0.863851 7.389832 -0.025976 -11.563469 10.383920 -66.345514 0.000068 -115.180103 0.000065 -72.996199 -11.310947 -18.454642 2.694203 20.233102 14.029372 2.246580 5.062581 -0.344645 0.000001 -0.000000 0.000000 5.768271 6.881161 -88.058767 5.425133 5.835594 -85.818117 -0.000006 -0.000004 -0.000001 -0.017683 7.177022 -79.088311 3.595316 5.400139 -67.288196 0.000002 -0.000002 -0.000004 0.351618 7.858099 -86.242394 3.058233 5.143554 -61.447858 -0.000003 0.000001 -0.000004 -3.192673 8.750414 -83.420918 6.384940 5.826775 -95.244078 -0.000001 0.000000 -0.000002 -0.000003 0.000002 -0.000000 0.518559 -7.917612 14.973081 -19.108964 0.823927 54.260010 0.000107 114.793924 -0.000108 -65.260928 9.926089 32.064726 2.274818 -18.433741 -12.204901 2.753452 -6.766201 -0.612022 -0.000003 0.000001 0.000000 5.674724 -1.758887 87.252750 4.318616 -4.644874 85.826648 -0.000001 0.000002 0.000002 2.028896 -6.487559 78.554743 2.866348 -4.299801 67.363246 0.000003 -0.000000 -0.000004 -1.327497 -6.487810 85.540196 2.437346 -4.095133 61.507192 0.000003 -0.000002 -0.000003 -13.485171 -6.858197 82.489588 5.081651 -4.637856 95.235049 -0.000005 0.000002 0.000004 -0.000000 -0.000001 -0.000001 0.000001 0.000000 -0.000000 0.000001 0.000000 -0.000000 0.000001 0.000000 -0.000000 0.000001 0.000000 -0.000000 0.000001 0.000000 -0.000000 -0.000001 0.000000 -0.000000 0.000001 0.000000 -0.000000 0.000001 0.000000 -0.000000 -0.000001 0.000000 -0.000000 0.000001 -0.000000 -0.000000 0.000001 -0.000000 -0.000000 -0.000001 -0.000000 0.000000 
0.109235 67.994797 1.667583 7.393077 3.880556 -1.561176 0.000000 0.000001 -0.000000 19.382250 15.687816 4.667804 23.496607 -4.234065 8.833176 -35.323696 -1.692729 -1.419508 -0.000001 0.000000 -0.000001 -0.000001 0.000000 -0.000000 -0.000000 -0.000001 -0.000000 -59.278420 -2.309005 -2.110083 71.994108 -3.530624 -0.409375 -20.259393 3.187620 -4.502094 0.000000 -0.000000 0.000000 0.000000 -0.000000 0.000000 -0.000000 0.000000 0.000000 1.657859 -1.946072 0.804754 3.785098 -3.090957 2.685692 3.791148 -3.134331 2.617750 -6.142039 2.189227 -1.060333 -20.578866 4.977735 9.024682 -0.000001 -0.000000 -0.000000 -0.000001 -0.000000 -0.000000 -0.000001 -0.000000 -0.000000 -0.699218 6.301895 -0.123048 -14.747398 8.597204 -65.355082 0.000037 -113.772360 0.000038 -71.122835 -11.217031 -18.021020 2.956434 20.391923 13.868036 2.256808 5.074897 -0.335820 0.000001 -0.000002 0.000001 5.832257 6.953410 -87.643662 5.383921 5.832449 -85.412656 0.000001 0.000001 -0.000002 0.075938 7.167625 -78.770557 3.574150 5.391279 -67.063039 0.000000 0.000001 0.000000 0.430415 7.837983 -85.961735 3.052585 5.140480 -61.384693 -0.000003 0.000000 -0.000000 -3.123930 8.721475 -83.173488 6.386841 5.826591 -95.262936 -0.000001 -0.000000 0.000001 0.000001 0.000001 -0.000000 0.413491 -7.788722 13.845024 -20.755801 2.647590 54.652479 0.000072 114.710268 -0.000072 -65.124938 9.634433 30.561668 2.414898 -18.861649 -12.282926 2.756558 -6.763777 -0.616794 -0.000001 0.000001 -0.000001 5.724103 -2.009604 86.044681 4.254352 -4.639753 85.032645 -0.000001 0.000001 0.000002 2.223335 -6.492737 77.328192 2.805702 -4.274065 66.551861 -0.000001 0.000003 0.000000 -1.004133 -6.353182 83.832711 2.365582 -4.055470 60.497383 0.000001 -0.000004 -0.000000 -13.015766 -6.850537 80.337696 4.970077 -4.646687 93.856628 -0.000000 0.000000 0.000000 -0.000000 -0.000000 0.000001 0.000001 0.000000 -0.000000 0.000001 0.000000 -0.000000 0.000001 0.000000 -0.000000 0.000001 0.000000 -0.000000 0.000001 0.000000 -0.000000 -0.000001 0.000000 -0.000000 0.000001 0.000000 -0.000000 0.000001 0.000000 -0.000000 -0.000001 0.000000 -0.000000 0.000000 -0.000000 0.000000 0.000000 -0.000000 0.000000 0.000000 0.000001 -0.000000 
0.240976 70.010803 1.865296 7.045954 5.737162 -0.879095 0.000000 0.000000 0.000000 15.379013 13.744904 3.978536 27.317550 -1.690286 10.779482 -26.513213 -1.223859 -2.496617 0.000001 -0.000002 -0.000001 0.000001 -0.000002 -0.000000 -0.000001 -0.000002 -0.000002 -55.565532 -2.314251 -3.285158 67.128308 -4.377357 -0.617562 -18.680987 3.157624 -4.839458 0.000000 -0.000000 0.000001 0.000000 -0.000000 0.000001 -0.000001 0.000000 0.000000 2.286769 -2.030827 1.208052 3.099218 -3.162404 2.168580 3.091624 -3.180354 2.120447 -5.647363 2.000596 -1.393997 -18.366983 3.484120 8.410582 -0.000000 -0.000000 -0.000000 -0.000000 -0.000000 -0.000000 -0.000000 -0.000000 -0.000000 -0.472603 4.837149 -0.286772 -18.246980 6.118547 -64.201128 0.000048 -111.959272 0.000037 -70.528328 -11.069077 -17.672997 3.052312 20.083160 13.631506 2.282463 5.105830 -0.313572 -0.000001 -0.000001 -0.000000 5.739259 6.804748 -86.402405 5.292531 5.824434 -84.512963 -0.000002 -0.000003 -0.000002 0.063389 7.084380 -77.817821 3.517055 5.366870 -66.453772 -0.000000 -0.000001 -0.000002 0.429284 7.766202 -85.148560 3.012660 5.118584 -60.938039 0.000002 -0.000001 -0.000001 -3.111971 8.578954 -82.473455 6.327466 5.831734 -94.678218 -0.000001 0.000001 0.000002 -0.000002 0.000000 0.000000 0.323428 -7.582995 12.788913 -22.735697 4.589338 55.000518 0.000032 114.546842 -0.000034 -66.009250 9.599546 29.265892 2.396683 -19.071082 -12.360060 2.764308 -6.757696 -0.628878 -0.000001 0.000001 0.000001 5.394713 -1.676059 84.200236 4.152343 -4.629803 83.770146 -0.000003 0.000002 0.000004 2.177238 -6.430874 75.372592 2.732561 -4.241672 65.566510 0.000002 0.000001 -0.000002 -0.872482 -6.186917 81.800169 2.288837 -4.011169 59.406199 -0.000000 0.000000 0.000000 -12.578796 -6.518115 78.150382 4.833908 -4.653830 92.177419 -0.000003 0.000000 0.000002 -0.000001 -0.000001 0.000001 0.000001 0.000000 0.000000 0.000001 0.000000 0.000000 0.000001 0.000000 0.000000 0.000001 0.000000 0.000000 0.000001 0.000000 -0.000000 0.000001 0.000000 0.000000 0.000001 0.000000 0.000000 0.000001 0.000000 -0.000000 0.000001 0.000000 0.000000 0.000000 0.000000 0.000000 0.000000 0.000000 0.000000 0.000000 0.000000 0.000000 
0.407598 72.135689 1.869640 6.506287 7.496226 -0.332283 -0.000001 -0.000001 0.000000 9.431748 11.800670 3.349528 32.600401 2.314826 12.929149 -13.201063 -0.738234 -4.812065 -0.000000 -0.000001 -0.000000 -0.000000 -0.000001 -0.000000 -0.000000 0.000003 0.000000 -51.487011 -2.470640 -4.067593 61.477501 -5.385993 -0.924080 -16.575544 3.187100 -5.539354 -0.000000 -0.000000 0.000000 -0.000000 -0.000000 0.000000 0.000002 0.000000 -0.000000 3.182324 -1.979272 1.756096 2.446619 -3.124233 1.713961 2.423727 -3.115748 1.695902 -5.047372 1.811920 -1.815773 -16.188803 1.802792 7.789923 -0.000000 -0.000000 0.000000 -0.000000 -0.000000 0.000000 -0.000000 -0.000000 0.000000 -0.203421 3.122969 -0.566954 -21.904188 3.029751 -63.035037 0.000071 -109.690311 0.000101 -71.153441 -10.857875 -17.502974 3.052062 19.424571 13.311491 2.318681 5.149488 -0.282188 -0.000002 0.000002 0.000002 5.508314 6.540131 -84.404998 5.160491 5.810329 -83.210043 -0.000001 0.000000 -0.000002 -0.028282 6.934537 -76.285816 3.430235 5.328354 -65.522285 -0.000003 -0.000002 -0.000000 0.374629 7.647757 -83.847047 2.941948 5.078781 -60.142561 -0.000003 -0.000003 -0.000001 -3.122399 8.407744 -81.338899 6.209389 5.840141 -93.517079 0.000001 0.000000 -0.000000 0.000002 -0.000000 0.000001 0.250415 -6.988276 11.672794 -25.083293 6.274631 55.058766 0.000103 114.221957 -0.000117 -67.297075 9.613011 28.187388 2.225123 -18.937413 -12.390621 2.775309 -6.749206 -0.645856 -0.000001 -0.000002 -0.000001 4.860545 -0.985255 81.914814 4.024127 -4.614050 82.179149 0.000000 -0.000001 -0.000000 1.826107 -6.267496 72.978707 2.650892 -4.203748 64.457759 -0.000000 0.000002 0.000000 -0.841713 -5.998526 79.557347 2.208657 -3.962800 58.253078 -0.000000 -0.000002 0.000002 -12.144819 -6.101588 75.947906 4.684033 -4.657119 90.330597 0.000003 -0.000002 0.000003 -0.000000 -0.000000 -0.000000 0.000000 0.000000 0.000000 0.000000 0.000000 0.000000 0.000000 0.000000 0.000000 0.000000 0.000000 0.000000 0.000000 0.000000 0.000000 -0.000001 0.000000 0.000000 0.000000 0.000000 0.000000 0.000000 0.000000 0.000000 -0.000001 0.000000 0.000000 0.000000 -0.000000 0.000000 0.000000 -0.000000 0.000000 -0.000001 -0.000001 0.000000 
